<?xml version="1.0" encoding="UTF-8"?>
<svg id="_レイヤー_1" data-name="レイヤー 1" xmlns="http://www.w3.org/2000/svg" viewBox="0 0 535.04 110.95">
  <g>
    <path d="M101.4,93.31l-8.55-8.72-2.41,13.69h-9.17l9.38-53.18h9.17c18.57,0,25.29,5.53,23.48,15.81-1.59,9.01-10.15,15.6-20.12,21.49l5.22,4.89c2.97,2.84,5.45,3.62,9.76,3.62l-1.39,7.87c-7.94,0-10.98-1.06-15.37-5.46ZM113.34,61.47c1.3-7.38-5.1-8.65-14.88-8.65l-4.79,27.16c10.99-6.38,18.32-10.85,19.67-18.51Z" fill="#fff"/>
    <path d="M126.45,81.04c2.21-12.55,11.45-21.7,22.08-21.7,7.01,0,11.69,4.04,12.66,9.93l-22.22,22.05c1.22.5,2.79.78,4.56.78,4.39,0,9.75-1.56,12.59-3.69l-1.36,7.73c-3.3,1.7-8.67,2.84-13.52,2.84-11.17,0-16.76-6.74-14.79-17.94ZM152.35,68.71c-.85-1.7-2.53-2.69-4.92-2.69-6.01,0-10.96,5.81-12.48,14.4-.41,2.34-.44,4.25-.05,5.96l17.44-17.66Z" fill="#fff"/>
    <path d="M165.14,93.6c.51-2.91,3.43-5.03,6.67-5.03s5.4,2.13,4.89,5.03-3.44,5.11-6.68,5.11-5.39-2.2-4.88-5.11ZM169.14,70.9c.51-2.91,3.43-5.03,6.67-5.03s5.4,2.13,4.89,5.03-3.44,5.11-6.68,5.11-5.39-2.2-4.88-5.11Z" fill="#fff"/>
  </g>
  <g>
    <path d="M225.81,53.28l-1.54,8.71c-.65,4.1-1.01,6.12-1.01,6.12-1.09,6.19-2.62,11.16-4.63,14.83-2.59,4.9-6.35,8.64-11.12,11.23-4.78,2.59-11.2,4.32-19.14,5.26l-.45-5.62c14.01-1.87,22.1-8.93,24.27-21.24l3.4-19.29h10.22ZM195.65,43.06l61.15-.07c-2.22,8.93-4.83,15.55-7.81,19.8-4.87,6.77-12.79,11.3-23.84,13.54l-.93-5.33c11.3-3.67,18-11.02,20.16-22.03h-49.76l1.04-5.9Z" fill="#f55b96"/>
    <path d="M321.42,54.15l-1.1,6.26h-41.33l-3.52,19.94c-1.05,5.98,2.24,8.93,9.88,8.93h30.17l-1.41,7.99h-34.49c-4.97,0-8.67-1.08-11.18-3.17-3.2-2.66-4.34-6.84-3.34-12.53l7.5-42.55h10.15l-2.67,15.12h41.33ZM311.07,49.97c0-4.46-.34-8.71-1.09-12.6l4.44-1.08c1.28,2.95,2.11,7.2,2.6,12.6l-5.95,1.08ZM321.98,48.97c-.17-4.32-.69-8.35-1.67-12.17l4.38-1.15c1.37,2.45,2.45,6.55,3.17,12.24l-5.88,1.08Z" fill="#f55b96"/>
    <path d="M344.14,41.26h10.22l-6.27,35.57h-10.22l6.27-35.57ZM341.16,92.88c10.39-.5,17.97-1.87,22.75-4.03,4.13-1.8,7.35-4.54,9.71-8.14,2.38-3.67,4.09-8.5,5.17-14.61l4.62-26.21h10.44l-5.07,28.73c-1.66,9.43-5.27,16.41-10.76,21.02-3.8,3.17-8.75,5.54-14.93,7.06-5.71,1.37-13.14,2.23-22.26,2.52l.33-6.34Z" fill="#f55b96"/>
    <path d="M407.74,93.82c9.61-1.44,16.26-4.82,20.03-10.29,2.05-3.02,3.38-6.48,4.16-10.51l.99-5.62h-28.37l1.05-5.98h63.94l-1.05,5.98h-25.49l-.13,1.15c-1.67,10.3-5.14,17.71-10.26,22.25-5.19,4.54-13.26,7.42-24.42,8.64l-.45-5.62ZM412.61,42.92h56.52l-1.03,5.83h-56.52l1.03-5.83Z" fill="#f55b96"/>
    <path d="M504.54,74.45c-7.37,3.02-16.32,5.18-26.75,6.34l-.09-5.62c8.56-1.15,16.46-3.53,23.88-7.2,10.02-4.97,18.19-11.66,24.57-20.09l8.89,2.66c-6.51,7.92-13.29,14.11-20.28,18.65l-5.39,30.6h-9.29l4.47-25.34Z" fill="#f55b96"/>
  </g>
  <g>
    <path d="M0,42.16l46.59-2.5,4.69,14.39-17.2,16.26S47.53,59.36,0,42.16h0Z" fill="#fff"/>
    <circle cx="43.21" cy="21.27" r="10.32" fill="#fff"/>
    <path d="M51.29,37.16s6.18,3.15,6.29,13.88c0,0,15.29-13.77,21.23-29.77,0,0-15.6,15.61-27.52,15.89h0Z" fill="#f55b96"/>
    <path d="M77.25,39.66S15.33,97.5,12.51,100.01c0,0,27.52-10.94,34.09-19.08l1.25,30.02s12.51-23.45,15.63-44.09c0,0,9.07-10.01,13.76-27.2h0Z" fill="#f55b96"/>
    <path d="M85.61,0l1.42,6.61c.31,1.46,1.46,2.6,2.91,2.91l6.61,1.42-6.61,1.42c-1.46.31-2.6,1.46-2.91,2.91l-1.42,6.61-1.42-6.61c-.31-1.46-1.46-2.6-2.91-2.91l-6.61-1.42,6.61-1.42c1.46-.31,2.6-1.46,2.91-2.91l1.42-6.61Z" fill="#f55b96"/>
  </g>
</svg>